<?xml version="1.0" standalone="no"?>
<!DOCTYPE svg PUBLIC "-//W3C//DTD SVG 20010904//EN"
 "http://www.w3.org/TR/2001/REC-SVG-20010904/DTD/svg10.dtd">
<svg version="1.0" xmlns="http://www.w3.org/2000/svg"
 width="239.000000pt" height="150.000000pt" viewBox="0 0 239.000000 150.000000"
 preserveAspectRatio="xMidYMid meet">

<g transform="translate(0.000000,150.000000) scale(0.100000,-0.100000)"
fill="#000000" stroke="none">
<path d="M170 895 l0 -605 100 0 100 0 2 173 c1 94 1 254 -1 353 -3 156 -1
185 13 205 22 32 24 209 2 209 -9 0 -14 10 -13 28 1 15 0 75 -1 135 l-2 107
-100 0 -100 0 0 -605z m190 495 c0 -60 -4 -100 -10 -100 -5 0 -10 -9 -10 -20
0 -11 5 -20 10 -20 7 0 10 -37 8 -102 -3 -102 -3 -103 -28 -103 -25 0 -25 1
-28 93 -2 84 -4 92 -22 92 -18 0 -20 -7 -20 -93 0 -111 12 -137 66 -137 l34 0
0 -116 c0 -72 -4 -113 -10 -109 -5 3 -19 1 -30 -5 -19 -10 -20 -8 -20 30 0 33
-3 40 -20 40 -19 0 -20 -7 -20 -115 l0 -115 28 0 c80 0 72 17 72 -156 l0 -154
-90 0 -90 0 0 595 0 595 90 0 90 0 0 -100z m-22 -695 c4 -43 -13 -69 -28 -45
-11 17 -13 74 -3 84 15 14 28 -2 31 -39z"/>
<path d="M280 1270 c0 -13 7 -20 20 -20 13 0 20 7 20 20 0 13 -7 20 -20 20
-13 0 -20 -7 -20 -20z"/>
<path d="M770 1127 c0 -106 7 -127 42 -127 11 0 18 7 18 20 0 11 -4 20 -10 20
-6 0 -10 38 -10 95 0 88 -1 95 -20 95 -19 0 -20 -7 -20 -103z"/>
<path d="M870 1210 c0 -13 7 -20 20 -20 13 0 20 7 20 20 0 13 -7 20 -20 20
-13 0 -20 -7 -20 -20z"/>
<path d="M960 1115 c0 -106 2 -115 19 -115 13 0 20 9 25 30 3 17 9 30 14 30 4
0 13 -13 19 -30 8 -20 18 -30 32 -30 26 0 26 -1 -1 55 -21 43 -21 46 -5 74 21
35 21 41 2 41 -8 0 -26 -17 -40 -37 l-25 -38 0 68 c0 60 -2 67 -20 67 -19 0
-20 -7 -20 -115z"/>
<path d="M440 1157 c0 -7 11 -46 25 -86 24 -71 24 -72 5 -91 -25 -25 -26 -50
-1 -50 28 0 37 16 66 120 15 52 30 101 32 108 3 7 -3 12 -16 12 -16 0 -23 -10
-32 -45 -13 -51 -19 -50 -34 3 -10 36 -45 59 -45 29z"/>
<path d="M620 1150 c-27 -27 -28 -110 -2 -133 23 -21 76 -22 93 -1 10 13 10
17 -2 25 -18 11 -26 11 -34 -1 -8 -13 -35 -1 -35 16 0 10 12 14 40 14 39 0 40
1 40 33 0 60 -59 88 -100 47z m60 -35 c0 -8 -9 -15 -20 -15 -20 0 -26 11 -13
23 12 13 33 7 33 -8z"/>
<path d="M870 1085 c0 -78 2 -85 20 -85 18 0 20 7 20 85 0 78 -2 85 -20 85
-18 0 -20 -7 -20 -85z"/>
<path d="M449 761 c-26 -21 -16 -31 30 -28 39 3 35 -19 -6 -29 -35 -8 -38 -12
-41 -46 -2 -29 1 -39 18 -48 11 -6 26 -8 32 -4 7 5 25 7 41 6 l29 -2 -4 70
c-2 38 -8 74 -13 79 -22 21 -61 22 -86 2z m61 -100 c0 -6 -5 -13 -10 -16 -15
-9 -43 3 -35 15 8 13 45 13 45 1z"/>
<path d="M620 767 c-28 -14 -38 -50 -20 -72 6 -8 25 -17 41 -20 16 -4 29 -10
29 -15 0 -16 -20 -21 -41 -10 -16 9 -24 9 -33 0 -8 -9 -5 -16 12 -30 12 -10
22 -23 22 -29 0 -6 6 -11 13 -11 6 0 4 -5 -5 -11 -25 -14 -22 -29 6 -29 33 0
53 25 36 45 -11 13 -10 18 8 31 22 15 29 49 14 70 -4 6 -20 15 -36 21 -17 5
-32 15 -34 21 -5 15 24 16 33 2 4 -7 13 -6 27 1 17 9 18 13 7 24 -22 21 -52
25 -79 12z"/>
<path d="M1152 771 c-7 -4 -24 -6 -38 -3 -24 4 -24 4 -24 -77 0 -74 2 -81 20
-81 16 0 19 8 22 58 3 50 6 57 26 60 12 2 22 10 22 18 0 8 0 17 1 21 1 11 -15
14 -29 4z"/>
<path d="M1412 764 c-24 -17 -29 -56 -9 -72 6 -6 24 -13 40 -17 15 -4 27 -11
27 -15 0 -16 -20 -21 -40 -10 -12 6 -27 7 -35 2 -28 -15 5 -44 50 -44 41 0 65
20 65 53 0 21 -36 49 -62 49 -10 0 -18 7 -18 15 0 17 25 21 35 5 8 -12 35 -1
35 14 0 12 -40 36 -58 36 -4 0 -18 -7 -30 -16z"/>
<path d="M755 730 c8 -23 19 -59 25 -81 17 -63 42 -52 68 29 27 83 27 92 3 92
-14 0 -21 -10 -26 -37 -11 -58 -18 -62 -30 -13 -8 34 -16 46 -33 48 -21 3 -21
3 -7 -38z"/>
<path d="M920 695 c0 -69 2 -76 23 -84 12 -5 26 -6 32 -3 5 3 22 5 37 4 l28
-2 0 80 c0 73 -2 80 -20 80 -17 0 -20 -7 -20 -49 0 -59 -7 -81 -26 -81 -11 0
-14 16 -14 65 0 58 -2 65 -20 65 -18 0 -20 -7 -20 -75z"/>
<path d="M1220 705 c0 -52 4 -69 20 -85 12 -12 26 -18 33 -13 6 4 24 6 39 5
l28 -2 0 80 c0 73 -2 80 -20 80 -18 0 -20 -7 -20 -59 0 -59 -14 -86 -31 -60
-5 8 -9 38 -9 67 0 45 -3 52 -20 52 -18 0 -20 -7 -20 -65z"/>
<path d="M1550 726 c0 -70 11 -107 34 -116 12 -4 25 -5 31 -2 5 4 22 5 37 3
l28 -3 0 81 c0 80 0 81 -25 81 -24 0 -25 -2 -25 -65 0 -51 -3 -65 -15 -65 -12
0 -15 14 -15 65 0 63 -1 65 -25 65 -23 0 -25 -4 -25 -44z"/>
<path d="M370 119 l0 -70 33 3 c32 3 32 3 32 58 1 74 -2 80 -36 80 l-29 0 0
-71z m50 36 c0 -18 -5 -25 -20 -25 -15 0 -20 7 -20 25 0 18 5 25 20 25 15 0
20 -7 20 -25z m-2 -68 c2 -19 -1 -27 -13 -27 -19 0 -30 24 -21 46 9 23 31 11
34 -19z"/>
<path d="M1162 171 c-4 -11 -5 -44 -2 -73 l5 -53 3 47 c2 34 8 48 20 51 16 4
16 5 0 6 -10 0 -18 5 -18 11 0 5 8 14 18 19 16 10 16 10 -1 11 -10 0 -21 -9
-25 -19z"/>
<path d="M2180 170 c0 -13 -7 -20 -20 -20 -23 0 -36 -37 -26 -75 5 -18 13 -25
31 -25 24 0 25 2 25 70 0 39 -2 70 -5 70 -3 0 -5 -9 -5 -20z m0 -70 c0 -29 -4
-40 -15 -40 -11 0 -15 11 -15 40 0 29 4 40 15 40 11 0 15 -11 15 -40z"/>
<path d="M485 140 c-4 -6 -4 -14 0 -18 4 -4 10 -1 12 6 6 17 33 15 33 -2 0 -8
-10 -16 -22 -18 -17 -2 -23 -10 -23 -28 0 -20 6 -26 28 -28 28 -3 28 -3 25 45
-3 40 -6 48 -25 51 -11 2 -24 -2 -28 -8z m45 -60 c0 -11 -6 -20 -14 -20 -18 0
-29 16 -21 30 11 18 35 11 35 -10z"/>
<path d="M593 134 c-4 -10 4 -24 22 -38 20 -16 25 -25 16 -30 -6 -4 -18 -2
-26 4 -19 16 -19 1 0 -24 12 -16 12 -22 2 -28 -9 -6 -8 -8 4 -8 22 0 31 11 19
25 -8 9 -6 14 5 19 23 8 18 34 -10 52 -25 16 -25 40 1 30 8 -3 14 -1 14 4 0
17 -40 11 -47 -6z"/>
<path d="M683 143 c3 -5 10 -27 16 -50 14 -52 27 -55 35 -7 4 19 10 43 13 51
4 10 2 14 -4 10 -6 -4 -14 -21 -18 -39 l-7 -33 -10 38 c-6 20 -14 37 -20 37
-5 0 -7 -3 -5 -7z"/>
<path d="M792 103 c3 -44 5 -48 31 -51 27 -3 27 -3 25 50 l-1 53 -6 -44 c-8
-62 -31 -67 -31 -7 0 26 -5 46 -11 46 -6 0 -9 -19 -7 -47z"/>
<path d="M902 95 c1 -43 2 -45 5 -13 3 24 12 43 26 53 22 15 22 15 -6 13 -26
-2 -27 -5 -25 -53z"/>
<path d="M994 105 c1 -47 3 -50 29 -53 27 -3 27 -3 26 50 -1 29 -3 42 -6 28
-13 -84 -34 -93 -44 -19 l-7 44 2 -50z"/>
<path d="M1234 137 c-3 -8 -4 -30 -2 -49 2 -28 7 -33 28 -33 23 0 25 4 25 45
0 39 -3 45 -23 48 -13 2 -24 -3 -28 -11z m36 -38 c0 -28 -4 -39 -12 -37 -24 8
-22 78 2 78 5 0 10 -18 10 -41z"/>
<path d="M1330 99 c0 -27 5 -49 10 -49 6 0 10 18 10 40 0 26 6 42 17 48 13 8
11 10 -10 10 -26 0 -27 -3 -27 -49z"/>
<path d="M1420 99 c0 -27 5 -49 10 -49 6 0 10 21 10 46 0 60 23 55 31 -7 l6
-44 1 48 c2 34 6 47 16 47 11 0 16 -14 19 -47 l3 -48 2 52 2 51 -50 0 -50 1 0
-50z"/>
<path d="M1582 103 c-2 -50 -1 -53 23 -53 24 0 25 3 23 53 l-2 52 -3 -47 c-3
-33 -9 -48 -18 -48 -9 0 -15 15 -18 48 l-3 47 -2 -52z"/>
<path d="M1680 100 c0 -27 5 -50 10 -50 6 0 10 20 10 45 0 33 4 45 14 45 11 0
16 -14 19 -47 l3 -48 2 53 c2 52 2 52 -28 52 -29 0 -30 -1 -30 -50z"/>
<path d="M1792 103 c3 -44 5 -48 31 -51 27 -3 27 -3 25 50 l-1 53 -6 -44 c-8
-62 -31 -67 -31 -7 0 26 -5 46 -11 46 -6 0 -9 -19 -7 -47z"/>
<path d="M1963 100 c0 -30 2 -43 4 -28 2 16 2 40 0 55 -2 16 -4 3 -4 -27z"/>
<path d="M2032 98 l2 -53 3 48 c3 33 8 47 19 47 10 0 14 -12 14 -45 0 -25 5
-45 11 -45 6 0 9 19 7 48 -3 43 -5 47 -30 50 -28 3 -28 3 -26 -50z"/>
<path d="M2253 100 c0 -30 2 -43 4 -28 2 16 2 40 0 55 -2 16 -4 3 -4 -27z"/>
<path d="M2310 100 c0 -27 5 -50 10 -50 6 0 10 18 10 40 0 27 6 42 18 49 14 9
13 10 -10 11 -27 0 -28 -2 -28 -50z"/>
</g>
</svg>
