<?xml version="1.0" standalone="no"?>
<!DOCTYPE svg PUBLIC "-//W3C//DTD SVG 20010904//EN"
 "http://www.w3.org/TR/2001/REC-SVG-20010904/DTD/svg10.dtd">
<svg version="1.0" xmlns="http://www.w3.org/2000/svg"
 width="669.000000pt" height="420.000000pt" viewBox="0 0 669.000000 420.000000"
 preserveAspectRatio="xMidYMid meet">

<g transform="translate(0.000000,420.000000) scale(0.100000,-0.100000)"
fill="#000000" stroke="none">
<path d="M480 2505 l0 -1695 280 0 280 0 0 464 c0 389 2 469 15 499 21 51 21
273 0 324 -12 29 -15 96 -15 378 l0 343 30 32 c16 17 34 48 40 68 5 21 10 147
10 285 l0 247 -40 0 c-38 0 -40 2 -40 30 0 20 5 30 15 30 12 0 15 13 15 55 0
42 -4 55 -15 55 -13 0 -15 41 -17 288 l-3 287 -277 3 -278 2 0 -1695z m530
1390 l0 -275 -25 0 c-24 0 -25 -3 -25 -55 0 -52 1 -55 25 -55 l25 0 0 -259 c0
-314 -7 -341 -85 -341 -77 0 -85 30 -85 311 l0 229 -55 0 -55 0 0 -257 c0
-230 2 -262 19 -299 33 -73 122 -113 215 -95 l46 8 0 -322 0 -322 -50 5 c-44
4 -52 2 -80 -26 l-30 -30 0 119 0 119 -60 0 -60 0 0 -325 0 -325 60 0 c59 0
60 1 60 27 0 27 0 27 15 6 21 -30 72 -45 113 -34 l32 10 0 -435 0 -434 -250 0
-250 0 0 1665 0 1665 250 0 250 0 0 -275z m-81 -1835 c29 0 43 -180 18 -230
-15 -30 -58 -38 -81 -15 -13 13 -16 38 -16 120 0 96 2 105 22 120 13 8 29 13
36 10 8 -3 17 -5 21 -5z"/>
<path d="M780 3565 l0 -55 55 0 55 0 0 55 0 55 -55 0 -55 0 0 -55z"/>
<path d="M2152 3163 c2 -211 6 -294 16 -310 18 -31 63 -53 112 -53 l40 0 0 53
c0 45 -3 54 -22 62 -23 10 -23 11 -26 273 l-2 262 -61 0 -61 0 4 -287z"/>
<path d="M2430 3395 l0 -55 55 0 55 0 0 55 0 55 -55 0 -55 0 0 -55z"/>
<path d="M2680 3125 l0 -325 60 0 60 0 0 50 c0 38 7 61 26 90 15 22 29 38 32
35 3 -3 22 -42 42 -88 l36 -82 67 -3 67 -3 -72 145 -72 144 50 74 c28 40 54
79 58 86 5 9 -8 12 -52 12 l-60 0 -61 -97 -61 -97 0 192 0 192 -60 0 -60 0 0
-325z"/>
<path d="M1774 3256 c-71 -31 -98 -103 -92 -251 4 -117 24 -161 86 -191 48
-22 136 -23 180 0 28 15 72 68 72 88 0 3 -21 13 -47 22 -45 15 -47 15 -65 -4
-42 -45 -118 -14 -118 47 0 23 2 23 115 23 l115 0 0 77 c0 98 -25 155 -81 183
-44 23 -119 26 -165 6z m121 -111 c14 -13 25 -36 25 -50 0 -24 -2 -25 -65 -25
-63 0 -65 1 -65 25 0 29 40 75 65 75 9 0 27 -11 40 -25z"/>
<path d="M1220 3254 c0 -3 32 -106 71 -229 l72 -222 -19 -39 c-16 -32 -25 -40
-51 -42 -33 -3 -33 -4 -33 -58 l0 -54 48 0 c53 0 85 18 106 58 7 15 48 149 91
297 43 149 80 276 82 283 4 9 -10 12 -50 12 l-56 0 -15 -52 c-8 -29 -22 -82
-31 -118 -9 -36 -20 -71 -24 -78 -5 -8 -23 38 -47 117 l-38 131 -53 0 c-29 0
-53 -3 -53 -6z"/>
<path d="M2430 3030 l0 -230 55 0 55 0 0 230 0 230 -55 0 -55 0 0 -230z"/>
<path d="M1274 2151 c-33 -20 -64 -58 -64 -76 0 -6 19 -18 43 -27 40 -15 44
-14 66 3 13 11 31 19 40 19 30 0 61 -30 61 -59 0 -28 -1 -28 -70 -34 -81 -7
-123 -28 -145 -73 -31 -66 -10 -167 40 -194 39 -21 111 -17 145 9 30 21 30 21
30 1 0 -18 6 -20 55 -20 l55 0 0 178 c0 195 -7 225 -63 266 -41 30 -151 34
-193 7z m146 -301 c0 -43 -18 -60 -64 -60 -43 0 -56 10 -56 46 0 40 19 53 78
54 l42 0 0 -40z"/>
<path d="M1731 2152 c-51 -26 -76 -65 -76 -121 0 -82 32 -112 158 -146 60 -16
78 -36 60 -64 -20 -32 -88 -26 -125 11 l-21 21 -43 -22 c-24 -11 -44 -27 -44
-36 0 -23 66 -82 99 -90 28 -6 31 -10 31 -45 0 -34 3 -38 31 -44 41 -8 33 -31
-11 -32 -28 0 -35 -5 -43 -28 -12 -35 2 -46 56 -46 53 0 105 24 117 54 13 34
-5 80 -35 94 -34 16 -31 39 5 47 41 9 88 58 96 100 15 84 -21 145 -97 165
-108 27 -124 35 -127 57 -7 45 83 54 112 11 14 -19 14 -19 57 2 24 13 45 24
47 25 2 2 -4 17 -13 35 -32 62 -159 91 -234 52z"/>
<path d="M3197 2139 l-37 -30 0 25 c0 25 -2 26 -60 26 l-60 0 0 -230 0 -230
59 0 59 0 4 155 c3 145 4 156 26 177 16 16 33 22 62 22 40 -1 40 -1 55 49 8
27 12 53 9 58 -3 5 -22 9 -42 9 -27 0 -48 -9 -75 -31z"/>
<path d="M3961 2152 c-51 -26 -76 -65 -76 -121 0 -82 32 -112 158 -146 60 -16
78 -36 60 -64 -20 -32 -88 -26 -125 11 l-21 21 -43 -22 c-50 -23 -52 -31 -24
-71 29 -40 83 -62 155 -63 135 -1 208 94 161 208 -16 38 -47 57 -126 75 -72
17 -90 27 -90 51 0 42 86 47 114 7 14 -19 14 -19 57 2 24 13 45 24 47 25 2 2
-4 17 -13 35 -32 62 -159 91 -234 52z"/>
<path d="M2080 2153 c0 -9 15 -56 91 -295 l50 -158 44 0 c43 0 44 0 59 48 66
208 126 399 126 405 0 4 -25 7 -55 7 l-54 0 -10 -37 c-5 -21 -21 -82 -35 -136
-13 -54 -27 -101 -29 -104 -6 -5 -11 12 -42 137 -9 36 -21 82 -26 103 l-10 37
-54 0 c-30 0 -55 -3 -55 -7z"/>
<path d="M2562 1973 c3 -147 8 -195 20 -218 34 -65 125 -81 178 -30 l30 29 0
-27 c0 -26 2 -27 55 -27 l55 0 0 230 0 230 -55 0 -55 0 0 -158 c0 -176 -8
-202 -59 -202 -48 0 -51 11 -51 192 l0 168 -61 0 -61 0 4 -187z"/>
<path d="M3422 1973 c3 -147 8 -195 20 -218 34 -65 125 -81 178 -30 l30 29 0
-27 c0 -26 2 -27 55 -27 l55 0 0 230 0 230 -55 0 -55 0 0 -158 c0 -176 -8
-202 -59 -202 -48 0 -51 11 -51 192 l0 168 -61 0 -61 0 4 -187z"/>
<path d="M4352 1973 c3 -147 8 -195 20 -218 34 -65 125 -81 178 -30 l30 29 0
-27 c0 -26 2 -27 55 -27 l55 0 0 230 0 230 -55 0 -55 0 0 -158 c0 -176 -8
-202 -59 -202 -48 0 -51 11 -51 192 l0 168 -61 0 -61 0 4 -187z"/>
<path d="M1040 335 l0 -195 70 0 c94 0 110 15 110 103 0 37 -6 71 -13 82 -12
15 -12 23 1 47 19 40 11 126 -14 145 -11 8 -45 13 -86 13 l-68 0 0 -195z m128
153 c18 -18 15 -94 -4 -113 -11 -10 -29 -15 -53 -13 l-36 3 -3 54 c-2 29 -1
60 2 67 7 17 77 19 94 2z m1 -172 c7 -9 11 -38 9 -73 l-3 -58 -52 -3 -53 -3 0
69 c0 38 3 72 7 75 12 13 80 7 92 -7z"/>
<path d="M3267 512 c-10 -10 -17 -35 -17 -55 0 -26 -4 -37 -15 -37 -8 0 -15
-7 -15 -15 0 -8 7 -15 15 -15 13 0 15 -21 15 -125 0 -118 1 -125 20 -125 19 0
20 7 20 125 l0 125 30 0 c20 0 30 5 30 15 0 10 -10 15 -31 15 -29 0 -30 2 -27
38 3 32 7 37 31 40 15 2 27 9 27 18 0 21 -63 18 -83 -4z"/>
<path d="M6110 465 c0 -60 -9 -80 -25 -55 -10 16 -72 12 -89 -6 -13 -12 -16
-39 -16 -124 0 -85 3 -112 16 -124 19 -19 75 -21 93 -3 11 9 14 9 18 0 3 -7
11 -13 19 -13 12 0 14 33 14 195 0 167 -2 195 -15 195 -12 0 -15 -14 -15 -65z
m-10 -101 c16 -41 12 -146 -6 -172 -19 -27 -60 -29 -74 -3 -5 11 -10 52 -10
91 0 87 10 110 51 110 22 0 32 -6 39 -26z"/>
<path d="M5490 500 c0 -11 7 -20 15 -20 8 0 15 9 15 20 0 11 -7 20 -15 20 -8
0 -15 -9 -15 -20z"/>
<path d="M6290 500 c0 -11 7 -20 15 -20 8 0 15 9 15 20 0 11 -7 20 -15 20 -8
0 -15 -9 -15 -20z"/>
<path d="M1378 408 c-9 -7 -19 -23 -23 -35 -5 -19 -2 -23 14 -23 11 0 22 9 26
20 4 14 15 20 34 20 35 0 51 -17 51 -52 0 -26 -3 -28 -39 -28 -24 0 -48 -8
-65 -21 -22 -17 -26 -29 -26 -68 0 -34 5 -53 18 -64 22 -20 83 -22 100 -5 9 9
12 9 12 0 0 -7 9 -12 21 -12 20 0 21 4 17 119 -2 100 -6 122 -22 140 -22 24
-92 29 -118 9z m102 -173 c0 -36 -4 -47 -25 -61 -23 -15 -27 -15 -50 0 -17 11
-25 26 -25 46 0 38 24 60 66 60 34 0 34 0 34 -45z"/>
<path d="M1666 398 c-21 -30 -20 -81 2 -101 10 -9 34 -22 53 -28 46 -16 59
-27 59 -53 0 -50 -71 -66 -92 -21 -13 30 -38 33 -38 5 0 -21 33 -60 50 -60 6
0 10 -11 10 -25 0 -15 6 -25 14 -25 21 0 31 -21 15 -31 -8 -5 -22 -6 -31 -3
-12 4 -18 0 -18 -11 0 -13 9 -16 43 -13 39 3 42 5 45 35 2 24 -2 34 -17 43
-26 13 -27 30 -3 30 47 0 74 89 39 128 -10 10 -35 24 -57 31 -45 13 -61 36
-49 69 11 30 68 32 76 2 6 -22 43 -28 43 -7 0 7 -7 23 -16 35 -22 32 -106 32
-128 0z"/>
<path d="M1932 348 c53 -192 58 -208 77 -208 14 0 25 25 54 134 21 73 37 136
37 140 0 3 -8 6 -18 6 -15 0 -23 -19 -41 -97 -13 -54 -26 -102 -29 -107 -5 -9
-14 21 -51 162 -9 30 -17 42 -31 42 -18 0 -18 -2 2 -72z"/>
<path d="M2220 302 c0 -135 10 -162 61 -162 17 0 39 5 50 10 13 7 19 7 19 0 0
-5 7 -10 15 -10 13 0 15 22 15 140 0 118 -2 140 -15 140 -12 0 -15 -19 -15
-109 0 -86 -3 -113 -16 -125 -18 -19 -28 -20 -55 -6 -17 10 -19 22 -19 125 0
108 -1 115 -20 115 -19 0 -20 -7 -20 -118z"/>
<path d="M2520 280 c0 -133 1 -140 20 -140 19 0 20 7 20 104 0 101 1 105 26
125 15 12 35 21 45 21 11 0 19 7 19 15 0 20 -39 19 -68 -1 -20 -14 -22 -14
-22 0 0 9 -9 16 -20 16 -19 0 -20 -7 -20 -140z"/>
<path d="M2770 302 c0 -135 10 -162 61 -162 17 0 39 5 50 10 13 7 19 7 19 0 0
-5 7 -10 15 -10 13 0 15 22 15 140 0 118 -2 140 -15 140 -12 0 -15 -19 -15
-109 0 -86 -3 -113 -16 -125 -18 -19 -28 -20 -55 -6 -17 10 -19 22 -19 125 0
108 -1 115 -20 115 -19 0 -20 -7 -20 -118z"/>
<path d="M3467 402 c-26 -28 -25 -222 1 -245 26 -23 94 -22 115 1 26 28 25
222 -1 245 -26 23 -94 22 -115 -1z m93 -31 c5 -11 10 -53 10 -95 0 -76 -13
-106 -45 -106 -32 0 -45 30 -45 106 0 87 11 114 45 114 14 0 29 -8 35 -19z"/>
<path d="M3730 280 c0 -133 1 -140 20 -140 19 0 20 7 20 104 0 101 1 105 26
125 15 12 35 21 45 21 11 0 19 7 19 15 0 20 -39 19 -68 -1 -20 -14 -22 -14
-22 0 0 9 -9 16 -20 16 -19 0 -20 -7 -20 -140z"/>
<path d="M3980 280 c0 -133 1 -140 20 -140 19 0 20 7 20 113 0 120 6 137 47
137 33 0 43 -34 43 -151 0 -81 3 -99 15 -99 12 0 15 18 15 106 0 116 9 144 45
144 36 0 45 -28 45 -144 0 -99 1 -106 20 -106 19 0 20 7 20 113 0 137 -10 161
-64 165 -25 2 -44 -2 -56 -13 -16 -14 -18 -14 -23 0 -8 18 -77 21 -95 3 -9 -9
-12 -9 -12 0 0 7 -9 12 -20 12 -19 0 -20 -7 -20 -140z"/>
<path d="M4410 302 c0 -135 10 -162 61 -162 17 0 39 5 50 10 13 7 19 7 19 0 0
-5 7 -10 15 -10 13 0 15 22 15 140 0 118 -2 140 -15 140 -12 0 -15 -19 -15
-109 0 -86 -3 -113 -16 -125 -18 -19 -28 -20 -55 -6 -17 10 -19 22 -19 125 0
108 -1 115 -20 115 -19 0 -20 -7 -20 -118z"/>
<path d="M4710 280 c0 -133 1 -140 20 -140 19 0 20 7 20 113 0 119 6 137 45
137 39 0 45 -18 45 -137 0 -106 1 -113 20 -113 19 0 20 7 20 118 0 140 -9 162
-69 162 -20 0 -42 -5 -49 -12 -9 -9 -12 -9 -12 0 0 7 -9 12 -20 12 -19 0 -20
-7 -20 -140z"/>
<path d="M5020 302 c0 -135 10 -162 61 -162 17 0 39 5 50 10 13 7 19 7 19 0 0
-5 7 -10 15 -10 13 0 15 22 15 140 0 118 -2 140 -15 140 -12 0 -15 -19 -15
-109 0 -86 -3 -113 -16 -125 -18 -19 -28 -20 -55 -6 -17 10 -19 22 -19 125 0
108 -1 115 -20 115 -19 0 -20 -7 -20 -118z"/>
<path d="M5490 280 c0 -118 2 -140 15 -140 13 0 15 22 15 140 0 118 -2 140
-15 140 -13 0 -15 -22 -15 -140z"/>
<path d="M5670 280 c0 -133 1 -140 20 -140 19 0 20 7 20 113 0 119 6 137 45
137 39 0 45 -18 45 -137 0 -106 1 -113 20 -113 19 0 20 7 20 118 0 140 -9 162
-69 162 -20 0 -42 -5 -49 -12 -9 -9 -12 -9 -12 0 0 7 -9 12 -20 12 -19 0 -20
-7 -20 -140z"/>
<path d="M6290 280 c0 -118 2 -140 15 -140 13 0 15 22 15 140 0 118 -2 140
-15 140 -13 0 -15 -22 -15 -140z"/>
<path d="M6470 280 c0 -133 1 -140 20 -140 19 0 20 7 20 104 0 101 1 105 26
125 15 12 35 21 45 21 11 0 19 7 19 15 0 20 -39 19 -68 -1 -20 -14 -22 -14
-22 0 0 9 -9 16 -20 16 -19 0 -20 -7 -20 -140z"/>
</g>
</svg>
